<?xml version="1.0" encoding="utf-8"?>

<!DOCTYPE svg PUBLIC "-//W3C//DTD SVG 1.1//EN" "http://www.w3.org/Graphics/SVG/1.1/DTD/svg11.dtd">
<svg version="1.1" id="Layer_1" xmlns="http://www.w3.org/2000/svg" xmlns:xlink="http://www.w3.org/1999/xlink" x="0px" y="0px"
	 viewBox="0 0 1626.406 1626.798" enable-background="new 0 0 1626.406 1626.798" xml:space="preserve">
<g id="America_Flag">
	<g>
		<g>
			<g>
				<g>
					<path fill="#3C3A6E" d="M813.385,14.119L813.385,14.119c-34.707-4.952-73.661,18.488-103.279,56.954
						C673.688,118.43,645.3,185.66,622.109,265.345c-26.091,89.727-44.006,191.058-55.017,300.072
						c-11.501,114.027-14.855,231.643-10.241,349.243c-80.532-0.155-156.886-0.38-228.152-0.688
						c-65.346-0.283-124.037-0.622-175.438-1.054c-43.586-0.366-78.942-0.752-105.764-1.297
						c-18.103-0.368-28.603-1.314-27.912-1.398c-27.014-223.086,46.3-458.421,195.235-626.694
						C363.897,115.383,588.669,14.215,813.385,14.119z"/>
					<g>
						<path fill="#FFFFFF" d="M757.353,15.826c-17.716,1.178-35.408,2.961-53.031,5.342c-0.115,0.059-0.213,0.12-0.289,0.187
							c-10.823,1.426-21.592,3.064-32.297,4.914c-17.54,3.124-34.985,6.843-52.292,11.149c10.79-2.727,21.64-5.218,32.536-7.473
							c-10.558,2.104-21.035,4.42-31.418,6.95c17.088-4.198,34.334-7.822,51.695-10.865c10.928-1.959,21.882-3.68,32.847-5.162
							c-0.194,0.059-0.372,0.121-0.531,0.186C722.09,18.726,739.696,16.983,757.353,15.826z"/>
						<path fill="#FFFFFF" d="M759.78,15.293c-17.022,1.011-34.057,2.628-51.061,4.843c-0.39,0.059-0.764,0.118-1.122,0.18
							c-10.236,1.324-20.378,2.862-30.412,4.619c-17.024,2.966-33.992,6.529-50.86,10.679c10.813-2.625,21.635-5.019,32.452-7.18
							c-9.776,2.007-19.431,4.231-28.949,6.677c16.156-4.052,32.489-7.522,48.954-10.406c10.714-1.854,21.403-3.474,32.056-4.857
							c-0.467,0.058-0.919,0.116-1.354,0.177C726.152,17.859,742.932,16.282,759.78,15.293z"/>
						<path fill="#FFFFFF" d="M764.532,14.794c-15.587,0.854-31.224,2.315-46.865,4.372c-0.651,0.054-1.288,0.109-1.909,0.166
							c-9.194,1.227-18.257,2.672-27.172,4.344c-15.775,2.818-31.531,6.235-47.226,10.235c10.368-2.526,20.695-4.826,30.969-6.895
							c-8.568,1.919-16.978,4.061-25.21,6.435c14.505-3.916,29.206-7.244,44.053-9.981c10.029-1.752,19.987-3.276,29.861-4.564
							c-0.722,0.052-1.429,0.106-2.122,0.16C734.003,17.05,749.226,15.628,764.532,14.794z"/>
						<path fill="#FFFFFF" d="M771.407,14.352c-13.473,0.714-27.027,2.037-40.613,3.951c-0.885,0.047-1.757,0.095-2.616,0.144
							c-7.756,1.143-15.347,2.508-22.753,4.108c-13.821,2.684-27.657,5.967-41.466,9.827c9.456-2.43,18.824-4.641,28.094-6.625
							c-6.975,1.842-13.759,3.914-20.325,6.229c12.198-3.796,24.613-7,37.188-9.608c8.901-1.658,17.688-3.094,26.349-4.298
							c-0.946,0.044-1.879,0.09-2.8,0.136C745.312,16.333,758.311,15.047,771.407,14.352z"/>
						<path fill="#FFFFFF" d="M780.109,13.986c-10.768,0.598-21.644,1.806-32.573,3.598c-1.081,0.038-2.151,0.076-3.21,0.116
							c-5.966,1.071-11.738,2.368-17.289,3.911c-11.265,2.575-22.572,5.749-33.878,9.488c8.11-2.339,16.092-4.469,23.937-6.38
							c-5.065,1.778-9.909,3.796-14.491,6.064c9.335-3.696,18.912-6.804,28.662-9.308c7.367-1.573,14.585-2.933,21.644-4.066
							c-1.125,0.034-2.241,0.07-3.348,0.106C759.592,15.739,769.797,14.566,780.109,13.986z"/>
						<path fill="#FFFFFF" d="M727.697,30.116c6.408-2.26,12.653-4.325,18.731-6.183c-2.951,1.737-5.65,3.73-8.022,5.963
							c6.022-3.61,12.322-6.656,18.816-9.09c5.513-1.502,10.847-2.804,15.998-3.887c-1.259,0.023-2.511,0.047-3.757,0.072
							c6.757-1.695,13.722-2.786,20.799-3.281c-7.592,0.511-15.312,1.635-23.092,3.329c-1.229,0.026-2.451,0.054-3.665,0.083
							c-3.937,1.019-7.66,2.273-11.115,3.785C744.204,23.404,735.96,26.491,727.697,30.116z"/>
						<path fill="#FFFFFF" d="M626.952,35.268c-17.161,4.121-34.213,8.831-51.112,14.117c-0.536,0.126-1.034,0.256-1.495,0.392
							c-10.008,3.142-19.895,6.497-29.646,10.066c-16.741,6.011-33.304,12.593-49.647,19.73c10.518-4.521,21.127-8.82,31.811-12.895
							c-9.517,3.813-18.885,7.84-28.086,12.084c15.716-7.007,31.697-13.463,47.899-19.354c10.709-3.777,21.475-7.328,32.282-10.652
							c-0.711,0.126-1.387,0.254-2.024,0.388C593.42,43.945,610.107,39.318,626.952,35.268z"/>
						<path fill="#FFFFFF" d="M638.885,33.555c-16.273,3.976-32.475,8.542-48.564,13.683c-1.136,0.121-2.237,0.244-3.303,0.37
							c-8.981,3.057-17.801,6.334-26.441,9.836c-16.043,5.887-31.947,12.345-47.673,19.356c10.629-4.435,21.294-8.653,31.984-12.653
							c-8.315,3.739-16.44,7.7-24.353,11.889c14.418-6.897,29.119-13.236,44.057-19.002c10.581-3.683,21.166-7.146,31.743-10.386
							c-1.305,0.118-2.575,0.239-3.811,0.362C607.772,41.946,623.242,37.458,638.885,33.555z"/>
						<path fill="#FFFFFF" d="M658.465,31.988c-14.667,3.843-29.299,8.276-43.858,13.278c-1.691,0.109-3.351,0.219-4.98,0.333
							c-7.553,2.982-14.909,6.192-22.041,9.638c-14.633,5.773-29.167,12.114-43.566,19.001c10.267-4.347,20.516-8.484,30.739-12.409
							c-6.738,3.676-13.248,7.585-19.499,11.728c12.47-6.802,25.241-13.043,38.263-18.704c9.967-3.582,19.888-6.953,29.751-10.109
							c-1.844,0.104-3.657,0.211-5.44,0.32C631.154,40.121,644.716,35.759,658.465,31.988z"/>
						<path fill="#FFFFFF" d="M684.873,30.637c-12.407,3.73-24.812,8.047-37.177,12.921c-2.181,0.091-4.336,0.185-6.464,0.28
							c-5.788,2.923-11.343,6.085-16.627,9.489c-12.557,5.674-25.052,11.909-37.455,18.675c9.445-4.264,18.821-8.329,28.122-12.189
							c-4.862,3.635-9.458,7.513-13.745,11.622c9.902-6.7,20.121-12.851,30.606-18.419c8.936-3.5,17.777-6.798,26.515-9.889
							c-2.304,0.085-4.584,0.173-6.838,0.263C662.59,38.554,673.631,34.297,684.873,30.637z"/>
						<path fill="#FFFFFF" d="M716.976,29.564c-9.591,3.647-19.203,7.871-28.805,12.629c-2.572,0.069-5.124,0.141-7.656,0.215
							c-3.764,2.884-7.256,6.018-10.424,9.381c-9.914,5.605-19.798,11.755-29.633,18.409c8.182-4.181,16.248-8.175,24.194-11.978
							c-2.762,3.625-5.208,7.491-7.304,11.551c6.876-6.607,14.079-12.7,21.568-18.218c7.477-3.417,14.818-6.646,22.016-9.679
							c-2.664,0.062-5.311,0.127-7.938,0.194C700.724,37.324,708.74,33.143,716.976,29.564z"/>
						<path fill="#FFFFFF" d="M496.044,78.845c-16.428,7.092-32.626,14.739-48.554,22.924c-0.318,0.176-0.581,0.36-0.765,0.562
							c-9.661,4.886-19.175,9.975-28.526,15.269c-15.554,8.831-30.816,18.185-45.747,28.041c9.425-6.237,19.02-12.267,28.767-18.09
							c-9.048,5.488-17.922,11.176-26.602,17.065c14.61-9.709,29.563-18.918,44.821-27.608c9.986-5.597,20.11-10.979,30.355-16.146
							c-0.585,0.179-1.114,0.363-1.58,0.56C463.884,93.361,479.841,85.83,496.044,78.845z"/>
						<path fill="#FFFFFF" d="M508.838,76.057c-16.097,6.98-32.003,14.517-47.68,22.592c-1.25,0.177-2.445,0.359-3.584,0.546
							c-8.641,4.822-17.092,9.857-25.332,15.106c-15.404,8.749-30.553,18.024-45.412,27.801
							c10.074-6.181,20.265-12.16,30.557-17.936c-7.864,5.439-15.511,11.088-22.916,16.946
							c13.664-9.642,27.691-18.777,42.041-27.382c10.415-5.527,20.913-10.845,31.48-15.952c-1.514,0.175-2.973,0.353-4.377,0.537
							C478.397,90.35,493.486,82.925,508.838,76.057z"/>
						<path fill="#FFFFFF" d="M535.021,73.433c-15.055,6.875-29.961,14.306-44.683,22.268c-2.145,0.165-4.239,0.333-6.281,0.505
							c-7.225,4.764-14.22,9.751-20.956,14.959c-14.584,8.677-28.957,17.877-43.088,27.575
							c10.291-6.121,20.643-12.047,31.042-17.776c-6.323,5.405-12.387,11.029-18.163,16.864
							c12.086-9.575,24.548-18.643,37.344-27.175c10.382-5.452,20.792-10.702,31.219-15.748c-2.388,0.16-4.727,0.322-7.015,0.489
							C507.659,87.524,521.202,80.196,535.021,73.433z"/>
						<path fill="#FFFFFF" d="M573.571,71.093c-13.336,6.784-26.563,14.116-39.653,21.969c-2.954,0.144-5.864,0.291-8.728,0.441
							c-5.485,4.726-10.698,9.683-15.606,14.858c-13.093,8.611-26.021,17.736-38.759,27.347
							c10.036-6.053,20.076-11.919,30.11-17.597c-4.482,5.389-8.662,10.999-12.513,16.806c9.932-9.507,20.243-18.52,30.899-26.999
							c9.88-5.374,19.732-10.555,29.548-15.542c-3.165,0.136-6.288,0.276-9.368,0.419C550.537,85.015,561.91,77.77,573.571,71.093z"
							/>
						<path fill="#FFFFFF" d="M622.875,69.144c-11.004,6.714-21.939,13.961-32.784,21.707c-3.638,0.116-7.24,0.234-10.805,0.357
							c-3.483,4.707-6.65,9.642-9.476,14.77c-10.998,8.57-21.88,17.637-32.629,27.171c9.309-5.975,18.566-11.775,27.762-17.398
							c-2.409,5.401-4.476,11.004-6.195,16.768c7.297-9.44,14.965-18.417,22.982-26.875c8.908-5.292,17.735-10.402,26.475-15.331
							c-3.796,0.106-7.559,0.215-11.288,0.328C605.239,82.945,613.905,75.763,622.875,69.144z"/>
						<path fill="#FFFFFF" d="M680.786,67.677c-8.156,6.677-16.282,13.856-24.372,21.498c-4.162,0.082-8.297,0.167-12.406,0.255
							c-1.32,4.751-2.287,9.695-2.914,14.781c-8.358,8.538-16.655,17.538-24.887,26.972c8.157-5.904,16.208-11.646,24.146-17.227
							c-0.196,5.453-0.042,11.06,0.432,16.787c4.307-9.363,8.943-18.31,13.92-26.785c7.534-5.216,14.938-10.267,22.206-15.153
							c-4.267,0.071-8.511,0.145-12.732,0.223C669.389,81.424,674.928,74.284,680.786,67.677z"/>
						<path fill="#FFFFFF" d="M383.002,141.04c-15.055,9.757-29.806,20.021-44.215,30.769c-0.989,0.211-1.905,0.428-2.744,0.657
							c-8.072,6.408-15.931,13.01-23.554,19.804c-13.997,11.356-27.63,23.18-40.866,35.446c8.806-7.719,17.807-15.257,26.984-22.611
							c-7.27,6.981-14.297,14.152-21.061,21.508c12.368-12.125,25.173-23.806,38.379-35.013c9.411-7.14,18.985-14.09,28.704-20.849
							c-1.344,0.211-2.615,0.427-3.811,0.651C354.508,160.789,368.582,150.66,383.002,141.04z"/>
						<path fill="#FFFFFF" d="M409.386,137.613c-14.58,9.696-28.896,19.899-42.918,30.583c-2.204,0.204-4.338,0.412-6.401,0.625
							c-6.691,6.384-13.125,12.971-19.277,19.754c-13.713,11.33-27.104,23.128-40.144,35.366
							c9.546-7.694,19.231-15.21,29.041-22.547c-5.755,6.977-11.224,14.15-16.386,21.504c11.155-12.108,22.758-23.772,34.774-34.956
							c9.932-7.098,19.971-14.012,30.102-20.74c-2.548,0.2-5.027,0.403-7.436,0.612
							C383.236,157.249,396.131,147.173,409.386,137.613z"/>
						<path fill="#FFFFFF" d="M453.766,134.461c-13.447,9.643-26.679,19.785-39.669,30.4c-3.341,0.184-6.618,0.372-9.83,0.564
							c-4.994,6.377-9.688,12.96-14.06,19.73c-12.81,11.308-25.35,23.077-37.595,35.279c9.863-7.658,19.808-15.145,29.821-22.461
							c-3.958,6.993-7.591,14.177-10.884,21.525c9.419-12.097,19.282-23.761,29.563-34.948c9.998-7.035,20.044-13.894,30.126-20.575
							c-3.654,0.177-7.247,0.358-10.776,0.543C431.169,154.006,442.283,143.974,453.766,134.461z"/>
						<path fill="#FFFFFF" d="M514.387,131.73c-11.691,9.601-23.22,19.687-34.568,30.227c-4.353,0.155-8.651,0.315-12.894,0.478
							c-3.043,6.401-5.749,12.996-8.106,19.751c-11.304,11.289-22.398,23.022-33.264,35.172c9.732-7.621,19.486-15.08,29.249-22.378
							c-1.951,7.042-3.55,14.252-4.801,21.595c7.189-12.052,14.799-23.694,22.818-34.88c9.635-6.992,19.259-13.816,28.862-20.473
							c-4.608,0.145-9.165,0.295-13.67,0.448C496.415,151.216,505.214,141.219,514.387,131.73z"/>
						<path fill="#FFFFFF" d="M588.668,129.551c-9.378,9.578-18.652,19.612-27.815,30.075c-5.167,0.118-10.292,0.241-15.374,0.367
							c-0.917,6.449-1.481,13.056-1.707,19.787c-9.259,11.286-18.378,22.988-27.348,35.085c9.141-7.57,18.243-14.988,27.295-22.257
							c0.196,7.1,0.737,14.33,1.599,21.667c4.62-12.012,9.61-23.651,14.978-34.868c8.802-6.931,17.534-13.706,26.188-20.328
							c-5.36,0.106-10.682,0.217-15.964,0.332C576.205,149.018,582.254,139.046,588.668,129.551z"/>
						<path fill="#FFFFFF" d="M270.118,226.203c-13.22,12.201-26.033,24.844-38.406,37.9c-0.413,0.212-0.744,0.437-0.944,0.689
							c-7.398,7.819-14.56,15.809-21.466,23.967c-11.811,13.551-23.164,27.498-34.031,41.806
							c6.939-9.015,14.144-17.878,21.596-26.582c-6.569,8.341-12.876,16.846-18.899,25.509
							c10.499-14.183,21.494-27.999,32.956-41.415c7.774-8.529,15.785-16.893,24.015-25.088c-0.84,0.218-1.59,0.444-2.243,0.688
							C244.731,250.761,257.216,238.26,270.118,226.203z"/>
						<path fill="#FFFFFF" d="M290.609,222.376c-13.253,12.195-26.137,24.833-38.62,37.888c-1.906,0.218-3.724,0.442-5.452,0.673
							c-6.03,7.83-11.781,15.837-17.23,24.01c-11.995,13.582-23.568,27.561-34.691,41.906c8.118-9.035,16.452-17.916,24.986-26.64
							c-5.08,8.372-9.854,16.91-14.306,25.599c9.602-14.222,19.712-28.077,30.303-41.526c8.783-8.53,17.751-16.896,26.887-25.097
							c-2.331,0.216-4.574,0.436-6.73,0.662C266.916,246.929,278.545,234.426,290.609,222.376z"/>
						<path fill="#FFFFFF" d="M334.334,218.756c-12.696,12.191-25.072,24.821-37.102,37.863c-3.353,0.204-6.622,0.412-9.808,0.626
							c-4.365,7.851-8.411,15.876-12.122,24.056c-11.66,13.62-22.948,27.633-33.839,42.01c8.962-9.046,18.085-17.941,27.355-26.684
							c-3.332,8.424-6.325,17.005-8.97,25.719c8.247-14.252,16.993-28.145,26.22-41.638c9.411-8.518,18.95-16.877,28.602-25.078
							c-3.748,0.198-7.416,0.4-11.002,0.606C313.429,243.318,323.661,230.811,334.334,218.756z"/>
						<path fill="#FFFFFF" d="M399.734,215.512c-11.553,12.192-22.846,24.809-33.858,37.827c-4.673,0.179-9.272,0.362-13.798,0.549
							c-2.473,7.898-4.598,15.954-6.373,24.141c-10.777,13.652-21.245,27.685-31.386,42.072c9.4-9.038,18.901-17.932,28.489-26.681
							c-1.388,8.488-2.421,17.111-3.105,25.843c6.482-14.27,13.433-28.2,20.846-41.745c9.615-8.495,19.296-16.838,29.032-25.031
							c-5.019,0.17-9.969,0.344-14.847,0.522C382.622,240.099,390.96,227.585,399.734,215.512z"/>
						<path fill="#FFFFFF" d="M484.151,212.799c-9.857,12.198-19.525,24.8-28.991,37.783c-5.798,0.144-11.535,0.293-17.212,0.445
							c-0.422,7.946-0.494,16.02-0.232,24.198c-9.376,13.697-18.52,27.757-27.421,42.156c9.393-9.008,18.824-17.88,28.279-26.618
							c0.678,8.549,1.697,17.204,3.037,25.947c4.39-14.285,9.191-28.253,14.412-41.865c9.352-8.453,18.707-16.765,28.056-24.937
							c-6.059,0.133-12.064,0.269-18.012,0.41C471.686,237.428,477.713,224.907,484.151,212.799z"/>
						<path fill="#FFFFFF" d="M583.903,210.75c-7.673,12.21-15.241,24.794-22.7,37.734c-6.664,0.102-13.284,0.209-19.861,0.319
							c1.679,8.022,3.677,16.145,5.968,24.357c-7.495,13.712-14.853,27.76-22.067,42.125c8.95-8.975,17.873-17.826,26.757-26.555
							c2.739,8.61,5.776,17.307,9.085,26.084c2.068-14.287,4.46-28.281,7.198-41.953c8.66-8.409,17.261-16.689,25.792-24.843
							c-6.839,0.089-13.641,0.182-20.404,0.279C576.74,235.434,580.143,222.906,583.903,210.75z"/>
						<path fill="#FFFFFF" d="M187.149,324.665c-11.166,14.279-21.868,28.926-32.08,43.909c-1.284,0.202-2.466,0.411-3.543,0.632
							c-5.253,9.049-10.209,18.247-14.85,27.578c-9.601,15.401-18.695,31.118-27.256,47.113
							c6.071-10.024,12.424-19.929,19.043-29.706c-4.236,9.473-8.153,19.079-11.738,28.801
							c7.562-15.899,15.682-31.518,24.338-46.815c6.981-9.676,14.219-19.218,21.696-28.62c-1.78,0.203-3.457,0.411-5.032,0.627
							C167.019,353.328,176.835,338.809,187.149,324.665z"/>
						<path fill="#FFFFFF" d="M224.173,321.031c-11.115,14.33-21.81,29.027-32.06,44.06c-2.986,0.197-5.873,0.398-8.66,0.604
							c-3.628,9.109-6.924,18.361-9.876,27.733c-9.717,15.485-18.969,31.285-27.731,47.367c7.327-10.075,14.89-20.027,22.67-29.853
							c-2.529,9.551-4.711,19.223-6.542,28.994c6.534-15.983,13.617-31.692,21.237-47.084c8.073-9.709,16.35-19.283,24.816-28.721
							c-3.469,0.193-6.841,0.39-10.115,0.592C206.147,349.812,214.908,335.234,224.173,321.031z"/>
						<path fill="#FFFFFF" d="M287.776,317.674c-10.558,14.38-20.757,29.119-30.575,44.188c-4.59,0.179-9.09,0.361-13.498,0.547
							c-1.797,9.183-3.242,18.492-4.336,27.899c-9.394,15.567-18.383,31.44-26.948,47.593c8.274-10.109,16.727-20.098,25.344-29.966
							c-0.659,9.638-0.963,19.377-0.922,29.193c5.186-16.073,10.889-31.884,17.106-47.39c8.807-9.709,17.76-19.287,26.844-28.736
							c-5.034,0.172-9.981,0.348-14.839,0.527C272.728,346.577,280.006,331.943,287.776,317.674z"/>
						<path fill="#FFFFFF" d="M375.565,314.754c-9.501,14.428-18.718,29.198-27.636,44.287c-6.029,0.151-11.98,0.306-17.851,0.465
							c0.174,9.272,0.697,18.643,1.554,28.094c-8.622,15.634-16.919,31.561-24.874,47.758c8.848-10.138,17.814-20.162,26.884-30.071
							c1.291,9.735,2.919,19.547,4.863,29.423c3.546-16.113,7.546-31.981,12.011-47.566c9.164-9.728,18.412-19.333,27.73-28.817
							c-6.394,0.142-12.714,0.287-18.96,0.437C364.257,343.779,369.682,329.095,375.565,314.754z"/>
						<path fill="#FFFFFF" d="M483.846,312.416c-7.977,14.47-15.76,29.261-23.341,44.353c-7.194,0.116-14.328,0.235-21.4,0.358
							c2.176,9.346,4.668,18.771,7.454,28.264c-7.432,15.698-14.634,31.669-21.595,47.898c9.009-10.139,18.069-20.172,27.169-30.1
							c3.221,9.808,6.734,19.68,10.519,29.609c1.729-16.158,3.824-32.087,6.305-47.758c9.074-9.715,18.165-19.315,27.261-28.805
							c-7.471,0.104-14.887,0.212-22.247,0.324C476.879,341.554,480.165,326.829,483.846,312.416z"/>
						<path fill="#FFFFFF" d="M105.967,441.126c-8.47,15.893-16.402,32.065-23.774,48.479c-0.436,0.153-0.776,0.311-0.951,0.511
							c-4.336,9.948-8.362,20.012-12.065,30.175c-6.664,16.678-12.76,33.574-18.27,50.648c3.602-10.644,7.533-21.217,11.779-31.702
							c-3.292,10.26-6.257,20.618-8.885,31.057c5.132-17.024,10.853-33.863,17.149-50.474c4.666-10.444,9.644-20.796,14.92-31.043
							c-0.977,0.161-1.841,0.327-2.588,0.511C90.286,472.974,97.854,456.906,105.967,441.126z"/>
						<path fill="#FFFFFF" d="M131.307,437.959c-8.81,15.993-17.115,32.27-24.892,48.794c-2.327,0.162-4.542,0.329-6.645,0.501
							c-2.729,10.037-5.119,20.18-7.16,30.408c-7.112,16.804-13.685,33.832-19.698,51.046c5.139-10.736,10.574-21.388,16.289-31.946
							c-1.621,10.362-2.893,20.809-3.815,31.318c4.342-17.153,9.268-34.126,14.771-50.875c6.107-10.52,12.487-20.939,19.122-31.251
							c-2.866,0.161-5.621,0.325-8.265,0.493C117.214,470.025,123.983,453.849,131.307,437.959z"/>
						<path fill="#FFFFFF" d="M187.188,434.953c-8.761,16.093-17.07,32.464-24.906,49.084c-4.168,0.152-8.23,0.308-12.185,0.467
							c-0.953,10.127-1.552,20.342-1.802,30.623c-7.263,16.937-14.037,34.096-20.302,51.444
							c6.492-10.817,13.234-21.545,20.21-32.179c0.174,10.473,0.699,21.012,1.564,31.597c3.333-17.272,7.218-34.373,11.656-51.26
							c7.303-10.579,14.828-21.056,22.558-31.428c-4.673,0.148-9.244,0.299-13.71,0.453
							C175.364,467.237,181.006,450.956,187.188,434.953z"/>
						<path fill="#FFFFFF" d="M271.77,432.248c-8.305,16.185-16.232,32.639-23.763,49.336c-5.859,0.134-11.623,0.271-17.292,0.411
							c0.917,10.225,2.177,20.517,3.764,30.859c-7.073,17.053-13.729,34.32-19.952,51.774c7.565-10.874,15.326-21.66,23.265-32.357
							c2.012,10.574,4.352,21.195,7.002,31.849c2.145-17.377,4.781-34.592,7.92-51.61c8.182-10.621,16.526-21.142,25.018-31.565
							c-6.304,0.127-12.517,0.258-18.64,0.391C262.819,464.739,267.044,448.363,271.77,432.248z"/>
						<path fill="#FFFFFF" d="M381.695,429.98c-7.449,16.266-14.61,32.785-21.471,49.537c-7.307,0.108-14.536,0.22-21.687,0.334
							c2.783,10.294,5.874,20.639,9.251,31.026c-6.539,17.172-12.753,34.546-18.629,52.102c8.29-10.9,16.711-21.717,25.25-32.452
							c3.805,10.647,7.894,21.331,12.247,32.044c0.833-17.473,2.071-34.794,3.732-51.934c8.665-10.634,17.427-21.176,26.274-31.628
							c-7.645,0.1-15.22,0.202-22.721,0.308C376.103,462.654,378.682,446.197,381.695,429.98z"/>
						<path fill="#FFFFFF" d="M512.17,428.262c-6.218,16.33-12.258,32.893-18.109,49.678c-8.427,0.077-16.799,0.157-25.113,0.24
							c4.544,10.383,9.343,20.811,14.377,31.283c-5.674,17.233-11.136,34.653-16.374,52.244
							c8.632-10.917,17.328-21.758,26.076-32.528c5.433,10.713,11.092,21.46,16.959,32.242c-0.54-17.542-0.782-34.937-0.708-52.166
							c8.752-10.637,17.535-21.19,26.334-31.664c-8.655,0.067-17.262,0.137-25.819,0.21
							C510.262,461.084,511.047,444.564,512.17,428.262z"/>
						<path fill="#FFFFFF" d="M49.384,617.156c3.78-17.405,8.16-34.662,13.13-51.727c-5.949,17.135-11.329,34.458-16.122,51.928
							c-1.434,0.104-2.75,0.211-3.945,0.325c-1.761,10.658-3.178,21.385-4.248,32.161c-4.06,17.624-7.527,35.373-10.389,53.203
							c2.597-11.053,5.532-22.071,8.792-33.037c-0.637,10.87-0.923,21.789-0.861,32.734c1.834-17.822,4.276-35.561,7.322-53.174
							c3.683-10.972,7.69-21.889,12.004-32.736C53.054,616.938,51.159,617.045,49.384,617.156z"/>
						<path fill="#FFFFFF" d="M95.288,615.374c2.944-17.542,6.469-34.944,10.572-52.161c-6.285,17.273-12.041,34.735-17.25,52.351
							c-3.427,0.101-6.738,0.205-9.932,0.311c-0.039,10.773,0.273,21.598,0.93,32.454c-4.521,17.778-8.485,35.684-11.876,53.679
							c4.195-11.161,8.699-22.273,13.495-33.327c1.099,10.989,2.545,22.008,4.324,33.039c1.073-17.974,2.727-35.871,4.964-53.651
							c5.191-11.069,10.668-22.071,16.414-33C102.934,615.169,99.054,615.27,95.288,615.374z M86.733,639.13L86.733,639.13
							L86.733,639.13L86.733,639.13z"/>
						<path fill="#FFFFFF" d="M173.922,613.727c1.948-17.668,4.428-35.203,7.448-52.566c-6.341,17.404-12.217,34.993-17.61,52.738
							c-5.314,0.092-10.521,0.186-15.621,0.282c1.737,10.885,3.81,21.803,6.203,32.74c-4.787,17.925-9.077,35.975-12.855,54.119
							c5.641-11.253,11.547-22.45,17.7-33.588c2.835,11.099,5.99,22.213,9.447,33.329c0.244-18.134,1.013-36.197,2.318-54.154
							c6.494-11.127,13.223-22.185,20.171-33.172C185.286,613.544,179.552,613.634,173.922,613.727z"/>
						<path fill="#FFFFFF" d="M282.403,612.296c0.838-17.777,2.134-35.429,3.9-52.924c-6.1,17.522-11.821,35.219-17.148,53.069
							c-7.013,0.078-13.934,0.158-20.762,0.241c3.492,10.992,7.284,22.004,11.357,33.03c-4.831,18.047-9.251,36.214-13.243,54.475
							c6.848-11.337,13.906-22.619,21.156-33.845c4.483,11.205,9.242,22.415,14.258,33.627c-0.629-18.236-0.818-36.406-0.549-54.481
							c7.53-11.206,15.238-22.345,23.106-33.417C297.033,612.143,289.674,612.218,282.403,612.296z M271.819,636.379
							L271.819,636.379L271.819,636.379L271.819,636.379z"/>
						<path fill="#FFFFFF" d="M416.185,611.153c-0.332-17.867-0.306-35.614,0.097-53.218c-5.562,17.619-10.85,35.4-15.852,53.328
							c-8.395,0.06-16.719,0.122-24.969,0.186c5.104,11.071,10.456,22.159,16.037,33.26c-4.647,18.157-8.989,36.423-13.009,54.782
							c7.75-11.387,15.646-22.724,23.671-34.011c5.942,11.277,12.103,22.559,18.465,33.846c-1.478-18.337-2.62-36.607-3.409-54.793
							c8.208-11.242,16.528-22.424,24.945-33.547C433.436,611.039,424.777,611.095,416.185,611.153z"/>
						<path fill="#FFFFFF" d="M17.32,752.423c1.144-17.85,2.901-35.651,5.269-53.36c-2.739,17.739-4.87,35.561-6.388,53.425
							c-0.43,0.031-0.742,0.054-0.923,0.105c-0.745,11.016-1.141,22.065-1.188,33.126c-0.755,17.894-0.894,35.805-0.417,53.691
							c-0.106-11.067,0.138-22.153,0.731-33.238c0.385,11.099,1.12,22.209,2.201,33.31c-0.85-17.934-1.085-35.885-0.704-53.81
							c1.028-11.127,2.405-22.252,4.127-33.354C19.002,752.35,18.099,752.385,17.32,752.423z"/>
						<path fill="#FFFFFF" d="M46.948,751.836c0.467-18.012,1.533-35.981,3.202-53.864c-3.306,17.899-6.028,35.889-8.154,53.927
							c-2.503,0.034-4.884,0.068-7.142,0.103c0.948,11.14,2.246,22.295,3.886,33.446c-1.381,18.059-2.163,36.143-2.339,54.208
							c1.582-11.19,3.51-22.382,5.773-33.559c2.07,11.222,4.48,22.436,7.22,33.628c-1.471-18.099-2.349-36.221-2.627-54.325
							c2.702-11.247,5.738-22.475,9.096-33.668C52.77,751.767,49.798,751.801,46.948,751.836z"/>
						<path fill="#FFFFFF" d="M111.082,751.28c-0.25-18.165,0.058-36.293,0.931-54.345c-3.739,18.055-6.943,36.201-9.597,54.404
							c-4.52,0.031-8.924,0.064-13.211,0.097c2.648,11.249,5.626,22.496,8.92,33.729c-1.972,18.228-3.388,36.484-4.234,54.73
							c3.259-11.311,6.838-22.609,10.723-33.882c3.712,11.339,7.735,22.658,12.053,33.946c-2.041-18.256-3.539-36.539-4.482-54.812
							c4.3-11.355,8.901-22.678,13.785-33.962C120.891,751.217,115.93,751.248,111.082,751.28z"/>
						<path fill="#FFFFFF" d="M207.67,750.78c-0.972-18.305-1.458-36.575-1.442-54.78c-4.009,18.198-7.557,36.485-10.628,54.831
							c-6.378,0.028-12.653,0.056-18.822,0.085c4.272,11.352,8.835,22.692,13.672,34.014c-2.481,18.375-4.475,36.779-5.967,55.18
							c4.822-11.41,9.923-22.799,15.284-34.16c5.22,11.434,10.707,22.841,16.44,34.216c-2.53-18.399-4.594-36.824-6.175-55.247
							c5.736-11.444,11.723-22.852,17.943-34.22C221.108,750.725,214.339,750.752,207.67,750.78z"/>
						<path fill="#FFFFFF" d="M332.905,750.362c-1.664-18.424-2.936-36.814-3.798-55.148c-4.093,18.321-7.823,36.724-11.174,55.189
							c-7.973,0.022-15.861,0.046-23.662,0.069c5.717,11.415,11.673,22.815,17.847,34.198c-2.872,18.523-5.351,37.072-7.42,55.623
							c6.182-11.476,12.586-22.929,19.194-34.358c6.517,11.495,13.243,22.962,20.159,34.403c-2.911-18.53-5.453-37.083-7.611-55.637
							c6.904-11.502,13.999-22.97,21.268-34.403C349.362,750.319,341.094,750.34,332.905,750.362z"/>
						<path fill="#FFFFFF" d="M481.303,750.047c-2.287-18.518-4.296-36.999-6.011-55.428c-3.981,18.417-7.715,36.908-11.185,55.457
							c-9.21,0.016-18.358,0.033-27.443,0.05c6.913,11.496,14.002,22.98,21.25,34.454c-3.136,18.604-5.993,37.227-8.556,55.855
							c7.267-11.531,14.693-23.043,22.261-34.539c7.509,11.544,15.162,23.067,22.941,34.571c-3.155-18.624-6.06-37.265-8.699-55.908
							c7.769-11.546,15.662-23.063,23.665-34.555C500.064,750.018,490.656,750.032,481.303,750.047z"/>
					</g>
				</g>
				<path fill="#FFFFFF" d="M556.844,713.01c126.461-0.242,256.581-0.3,386.699-0.179c126.458,0.118,245.737,0.396,354.586,0.866
					c95.555,0.413,175.418,0.914,237.722,1.678c43.446,0.533,75.442,1.566,71.351,2.065c-7.765-63.93-23.296-126.965-46.122-187.185
					c4.273-1.629-26.878-4.241-68.052-5.718c-58.834-2.108-134.129-3.494-224.092-4.635c-102.376-1.298-214.489-2.064-333.296-2.389
					c-122.218-0.334-244.439-0.175-363.247,0.493C564.606,581.352,559.454,646.579,556.844,713.01z"/>
				<path fill="#FFFFFF" d="M696.152,90.841c117.243-1.605,234.527-0.968,339.575,2.263c82.228,2.534,156.831-2.069,149.29,12.62
					c-57.026-29.923-117.727-52.945-180.254-68.366c2.1-8.895-35.505-5.653-77.86-7.065c-53.722-1.788-113.513-2.141-173.279-1.254
					C732.711,42.644,713.494,64.196,696.152,90.841z"/>
				<circle fill="#FFFFFF" cx="813.385" cy="14.119" r="0"/>
				<path fill="#FFFFFF" d="M65.689,1097.263c-2.523,0.961,17.228,3.545,45.208,4.805c40.538,1.823,93.144,3.079,156.989,4.203
					c74.039,1.302,156.998,2.228,247.373,2.877c96.109,0.689,196.128,1.023,298.126,1.024c101.998,0,202.017-0.334,298.126-1.024
					c90.375-0.649,173.334-1.575,247.373-2.877c63.846-1.124,116.451-2.38,156.99-4.203c27.979-1.259,47.73-3.844,45.208-4.805
					c22.808-60.174,38.333-123.159,46.104-187.04c2.081,0.254-17.76,1.283-47.215,1.738c-42.864,0.661-98.582,1.115-166.313,1.523
					c-78.637,0.473-166.817,0.808-262.943,1.044c-102.274,0.25-208.74,0.372-317.329,0.372c-108.589,0-215.055-0.121-317.329-0.372
					c-96.126-0.236-184.306-0.572-262.943-1.044c-67.731-0.407-123.449-0.862-166.313-1.523
					c-29.455-0.455-49.296-1.484-47.215-1.738C27.356,974.104,42.881,1037.089,65.689,1097.263z"/>
				<path fill="#FFFFFF" d="M602.359,342.363c104.057-0.931,211.06-1.153,318.059-0.688c104.057,0.454,202.337,1.525,292.194,3.337
					c79.114,1.597,145.508,3.542,197.548,6.492c36.668,2.081,65.447,5.193,61.341,8.044
					c-36.587-52.998-79.634-101.593-127.832-144.306c3.257-3.704-21.048-6.306-51.075-8.512
					c-42.226-3.098-95.852-5.149-159.516-6.827c-150.821-3.968-319.676-4.748-488.49-2.775
					C628.142,241.155,614.195,289.856,602.359,342.363z"/>
				<path fill="#FFFFFF" d="M622.008,1590.16c-1.479,6.22,24.688,4.775,54.978,6.168c39.761,1.825,86.327,2.583,136.399,2.584
					c50.072-0.001,96.639-0.758,136.399-2.584c30.29-1.393,56.457,0.052,54.978-6.168c62.527-15.42,123.227-38.443,180.254-68.366
					c5.206,10.101-46.23,8.513-104.764,11.005c-77.473,3.293-168.627,4.658-266.867,4.66c-98.241-0.002-189.394-1.366-266.867-4.66
					c-58.534-2.492-109.969-0.904-104.764-11.005C498.78,1551.718,559.481,1574.74,622.008,1590.16z"/>
				<path fill="#FFFFFF" d="M283.101,1412.276c-9.713,11.104,63.802,10.33,146.945,13.363c52.406,1.91,110.908,3.267,174.448,4.217
					c67.421,1.007,137.489,1.494,208.892,1.495c71.403,0,141.471-0.488,208.892-1.495c63.54-0.95,122.042-2.307,174.448-4.217
					c83.143-3.033,156.657-2.26,146.945-13.363c48.197-42.713,91.245-91.309,127.832-144.307c2.692,1.868-16.02,4.985-41.044,6.762
					c-35.961,2.551-82.472,4.317-138.749,5.892c-65.116,1.821-137.964,3.115-217.227,4.022
					c-84.213,0.962-171.802,1.428-261.097,1.429c-89.295,0-176.884-0.466-261.097-1.429c-79.262-0.907-152.111-2.201-217.227-4.022
					c-56.277-1.575-102.787-3.341-138.749-5.892c-25.024-1.777-43.736-4.894-41.044-6.762
					C191.856,1320.967,234.903,1369.563,283.101,1412.276z"/>
				<path fill="#B22134" d="M753.623,29.039c59.766-0.887,119.557-0.534,173.279,1.254c42.355,1.413,79.96-1.83,77.86,7.065
					c-62.531-15.405-126.977-23.231-191.377-23.239l0,0C793.632,11.295,772.338,16.879,753.623,29.039z"/>
				<path fill="#B22134" d="M644.589,197.129c168.814-1.973,337.669-1.193,488.49,2.775c63.663,1.677,117.29,3.729,159.516,6.827
					c30.027,2.206,54.332,4.807,51.075,8.512c-48.208-42.701-101.634-79.582-158.653-109.519
					c7.542-14.688-67.061-10.085-149.29-12.62c-105.048-3.231-222.331-3.867-339.575-2.263
					C676.744,120.679,659.744,156.583,644.589,197.129z"/>
				<path fill="#B22134" d="M572.394,518.006c118.809-0.667,241.029-0.827,363.247-0.493c118.807,0.326,230.92,1.092,333.296,2.389
					c89.963,1.141,165.258,2.527,224.092,4.635c41.175,1.477,72.326,4.089,68.052,5.718c-22.84-60.214-53.006-117.7-89.58-170.707
					c4.106-2.851-24.673-5.963-61.341-8.044c-52.041-2.95-118.434-4.895-197.548-6.492c-89.857-1.812-188.137-2.882-292.194-3.337
					c-106.999-0.466-214.002-0.244-318.059,0.688C589.866,397.813,579.948,456.598,572.394,518.006z"/>
				<path fill="#B22134" d="M556.85,914.66c-80.532-0.155-156.886-0.38-228.152-0.688c-65.346-0.283-124.037-0.622-175.438-1.054
					c-43.586-0.366-78.942-0.752-105.764-1.297c-18.103-0.368-28.603-1.314-27.912-1.398l0,0c-2.081,0.254,17.76,1.283,47.215,1.738
					c42.864,0.661,98.582,1.115,166.313,1.523c78.637,0.473,166.817,0.808,262.943,1.044c102.274,0.25,208.74,0.372,317.329,0.372
					c108.589,0,215.055-0.121,317.329-0.372c96.126-0.236,184.306-0.572,262.943-1.044c67.731-0.407,123.448-0.862,166.313-1.523
					c29.455-0.455,49.296-1.484,47.215-1.738c7.761-63.931,7.767-128.851,0.018-192.783c4.09-0.499-27.905-1.532-71.351-2.065
					c-62.303-0.763-142.167-1.264-237.722-1.678c-108.85-0.47-228.128-0.748-354.586-0.866
					c-130.118-0.121-260.238-0.063-386.699,0.179C554.214,780.115,554.216,847.556,556.85,914.66z"/>
				<path fill="#B22134" d="M155.269,1267.969c-2.692,1.868,16.02,4.985,41.044,6.762c35.961,2.551,82.472,4.317,138.749,5.892
					c65.116,1.821,137.964,3.115,217.227,4.022c84.213,0.962,171.802,1.428,261.097,1.429c89.295,0,176.884-0.466,261.097-1.429
					c79.262-0.907,152.111-2.201,217.227-4.022c56.277-1.575,102.787-3.341,138.749-5.892c25.024-1.777,43.736-4.894,41.044-6.762
					c36.574-53.007,66.74-110.492,89.58-170.706c2.523,0.961-17.228,3.545-45.208,4.805c-40.538,1.823-93.144,3.079-156.99,4.203
					c-74.039,1.302-156.998,2.228-247.373,2.877c-96.109,0.689-196.128,1.023-298.126,1.024c-101.998,0-202.017-0.334-298.126-1.024
					c-90.375-0.649-173.334-1.575-247.373-2.877c-63.846-1.124-116.451-2.38-156.989-4.203c-27.98-1.259-47.73-3.844-45.208-4.805
					C88.529,1157.477,118.695,1214.962,155.269,1267.969z"/>
				<path fill="#B22134" d="M441.754,1521.795c-5.206,10.101,46.23,8.513,104.764,11.005c77.473,3.293,168.627,4.658,266.867,4.66
					c98.241-0.002,189.394-1.366,266.867-4.66c58.534-2.492,109.969-0.904,104.764-11.005
					c57.019-29.937,110.446-66.817,158.653-109.519c9.713,11.104-63.802,10.33-146.945,13.363
					c-52.406,1.91-110.908,3.267-174.448,4.217c-67.421,1.007-137.489,1.494-208.892,1.495c-71.403,0-141.471-0.488-208.892-1.495
					c-63.54-0.95-122.042-2.307-174.448-4.217c-83.143-3.033-156.657-2.26-146.945-13.363
					C331.308,1454.977,384.735,1491.858,441.754,1521.795z"/>
				<path fill="#B22134" d="M813.385,1613.399L813.385,1613.399c64.4-0.008,128.847-7.833,191.377-23.239
					c1.479,6.22-24.688,4.775-54.978,6.168c-39.761,1.825-86.327,2.583-136.399,2.584c-50.072-0.001-96.639-0.758-136.399-2.584
					c-30.29-1.393-56.457,0.052-54.978-6.168C684.538,1605.566,748.985,1613.391,813.385,1613.399z"/>
			</g>
		</g>
	</g>
</g>
</svg>
