<svg width="117px" height="91px" viewBox="0 0 117 91" version="1.1" xmlns="http://www.w3.org/2000/svg" xmlns:xlink="http://www.w3.org/1999/xlink">
    <g id="Page-1" stroke="none" stroke-width="1" fill="none" fill-rule="evenodd">
        <g id="maestro" transform="translate(-15.000000, -15.000000)">
            <rect id="Rectangle" x="0" y="0" width="146.78" height="120.64"></rect>
            <path d="M50.39,105.24 L50.39,99.24 C50.4607615,98.2218464 50.0898945,97.2224906 49.3720531,96.4969923 C48.6542118,95.771494 47.658847,95.3900449 46.64,95.45 C45.2938341,95.3617478 44.0063295,96.0131639 43.28,97.15 C42.6177959,96.0470594 41.4052783,95.3947556 40.12,95.45 C39.0009174,95.393427 37.9355616,95.9337146 37.32,96.87 L37.32,95.69 L35.24,95.69 L35.24,105.24 L37.34,105.24 L37.34,99.95 C37.245777,99.2873362 37.4541881,98.6173936 37.9076974,98.1251228 C38.3612067,97.632852 39.0118483,97.3703186 39.68,97.41 C41.06,97.41 41.76,98.31 41.76,99.93 L41.76,105.24 L43.86,105.24 L43.86,99.95 C43.7732696,99.2888429 43.9842712,98.6232734 44.4360816,98.1328468 C44.8878919,97.6424202 45.5339631,97.3776628 46.2,97.41 C47.62,97.41 48.3,98.31 48.3,99.93 L48.3,105.24 L50.39,105.24 Z M62.09,100.47 L62.09,95.7 L59.99,95.7 L59.99,96.86 C59.2744648,95.9366204 58.1573135,95.4152831 56.99,95.46 C54.2285763,95.46 51.99,97.6985763 51.99,100.46 C51.99,103.221424 54.2285763,105.46 56.99,105.46 C58.1573135,105.504717 59.2744648,104.98338 59.99,104.06 L59.99,105.22 L62.07,105.22 L62.09,100.47 Z M54.36,100.47 C54.452495,98.9006686 55.7824419,97.6931084 57.3533905,97.7520725 C58.9243391,97.8110366 60.1600222,99.1148954 60.1346159,100.686745 C60.1092096,102.258594 58.8320336,103.521837 57.26,103.53 C56.4551551,103.548876 55.6796275,103.227661 55.1238393,102.645225 C54.5680512,102.06279 54.2834803,101.27308 54.34,100.47 L54.36,100.47 Z M106.53,95.47 C107.214775,95.4682303 107.893592,95.5972056 108.53,95.85 C109.137461,96.0932684 109.691264,96.4534099 110.16,96.91 C110.622677,97.362468 110.989918,97.9031276 111.24,98.5 C111.762458,99.7821529 111.762458,101.217847 111.24,102.5 C110.990158,103.097002 110.622887,103.637707 110.16,104.09 C109.691264,104.54659 109.137461,104.906732 108.53,105.15 C107.211359,105.662389 105.748641,105.662389 104.43,105.15 C103.825372,104.906973 103.274802,104.546723 102.81,104.09 C102.351744,103.635935 101.988065,103.095515 101.74,102.5 C101.218604,101.217639 101.218604,99.7823608 101.74,98.5 C101.988065,97.9044852 102.351744,97.3640653 102.81,96.91 C103.274802,96.4532769 103.825372,96.0930269 104.43,95.85 C105.089277,95.5767277 105.796336,95.4373556 106.51,95.44 L106.53,95.47 Z M106.53,97.47 C106.122732,97.4644449 105.718362,97.5392024 105.34,97.69 C104.983617,97.83289 104.660299,98.047301 104.39,98.32 C104.114252,98.607078 103.899892,98.9473326 103.76,99.32 C103.454506,100.118443 103.454506,101.001557 103.76,101.8 C103.899639,102.172793 104.11403,102.513096 104.39,102.8 C104.660118,103.07292 104.983484,103.287363 105.34,103.43 C106.101838,103.728314 106.948162,103.728314 107.71,103.43 C108.083562,103.291918 108.424168,103.077336 108.71,102.8 C108.986419,102.513448 109.200872,102.173046 109.34,101.8 C109.645494,101.001557 109.645494,100.118443 109.34,99.32 C109.200872,98.946954 108.986419,98.6065523 108.71,98.32 C108.424168,98.0426638 108.083562,97.8280825 107.71,97.69 C107.332767,97.5173071 106.924707,97.4220931 106.51,97.41 L106.53,97.47 Z M73.39,100.47 C73.39,97.47 71.53,95.47 68.86,95.47 C66.0985764,95.5086601 63.8913404,97.7785764 63.9300003,100.54 C63.9686603,103.301424 66.2385764,105.50866 69,105.47 C70.4236645,105.518642 71.815443,105.041664 72.91,104.13 L71.91,102.59 C71.120362,103.223279 70.1421018,103.575171 69.13,103.59 C67.7003664,103.71295 66.4325803,102.675671 66.27,101.25 L73.36,101.25 C73.39,101 73.39,100.75 73.39,100.47 Z M66.28,99.63 C66.360266,98.3107498 67.4686352,97.2906969 68.79,97.32 C69.418603,97.3065984 70.02677,97.5435298 70.480639,97.9786438 C70.934508,98.4137579 71.1968782,99.0113911 71.21,99.64 L66.28,99.63 Z M82.14,98.13 C81.2267691,97.6041555 80.1937381,97.3217937 79.14,97.31 C78,97.31 77.32,97.73 77.32,98.43 C77.32,99.13 78.04,99.25 78.94,99.37 L79.94,99.51 C82.02,99.81 83.28,100.69 83.28,102.37 C83.28,104.05 81.68,105.49 78.93,105.49 C77.456119,105.529206 76.0085314,105.094579 74.8,104.25 L75.8,102.63 C76.7177032,103.31083 77.8378025,103.663062 78.98,103.63 C80.4,103.63 81.16,103.21 81.16,102.47 C81.16,101.93 80.62,101.63 79.48,101.47 L78.48,101.33 C76.34,101.03 75.18,100.07 75.18,98.51 C75.18,96.61 76.74,95.45 79.18,95.45 C80.5456409,95.4042448 81.8957326,95.7513121 83.07,96.45 L82.14,98.13 Z M92.14,97.59 L88.75,97.59 L88.75,101.9 C88.75,102.9 89.09,103.5 90.13,103.5 C90.7791308,103.478503 91.4122032,103.29271 91.97,102.96 L92.57,104.74 C91.7903077,105.226578 90.8890585,105.483087 89.97,105.48 C87.51,105.48 86.65,104.16 86.65,101.94 L86.65,97.59 L84.71,97.59 L84.71,95.69 L86.65,95.69 L86.65,92.79 L88.75,92.79 L88.75,95.69 L92.14,95.69 L92.14,97.59 Z M99.33,95.45 C99.8345223,95.4519495 100.335022,95.5398751 100.81,95.71 L100.17,97.71 C99.7566879,97.5452122 99.3149063,97.4636525 98.87,97.47 C97.51,97.47 96.87,98.35 96.87,99.93 L96.87,105.28 L94.79,105.28 L94.79,95.73 L96.85,95.73 L96.85,96.89 C97.369983,95.9968032 98.3369173,95.4596174 99.37,95.49 L99.33,95.45 Z M113.71,103.85 C113.840013,103.848407 113.969089,103.872184 114.09,103.92 C114.204843,103.966864 114.309965,104.034685 114.4,104.12 C114.487869,104.206221 114.559063,104.307926 114.61,104.42 C114.712361,104.656047 114.712361,104.923953 114.61,105.16 C114.559063,105.272074 114.487869,105.373779 114.4,105.46 C114.309965,105.545315 114.204843,105.613136 114.09,105.66 C113.970282,105.712825 113.840854,105.740073 113.71,105.74 C113.32305,105.737083 112.972513,105.511182 112.81,105.16 C112.708824,104.923708 112.708824,104.656292 112.81,104.42 C112.860937,104.307926 112.932131,104.206221 113.02,104.12 C113.110035,104.034685 113.215157,103.966864 113.33,103.92 C113.435242,103.878147 113.54683,103.854477 113.66,103.85 L113.71,103.85 Z M113.71,105.54 C113.809809,105.540606 113.908625,105.520162 114,105.48 C114.086036,105.441588 114.164064,105.387307 114.23,105.32 C114.402192,105.146579 114.477657,104.899326 114.431654,104.659308 C114.38565,104.41929 114.224111,104.217463 114,104.12 C113.908535,104.080121 113.80978,104.059689 113.71,104.06 C113.610306,104.060527 113.511718,104.080924 113.42,104.12 C113.330155,104.15684 113.248562,104.211235 113.18,104.28 C112.920703,104.562907 112.920703,104.997093 113.18,105.28 C113.319884,105.421636 113.510934,105.50094 113.71,105.5 L113.71,105.54 Z M113.77,104.35 C113.863351,104.345473 113.955341,104.373777 114.03,104.43 C114.092102,104.481396 114.125611,104.559584 114.12,104.64 C114.122903,104.707155 114.097511,104.77245 114.05,104.82 C113.992038,104.872646 113.918097,104.904335 113.84,104.91 L114.13,105.24 L113.9,105.24 L113.63,104.91 L113.54,104.91 L113.54,105.24 L113.35,105.24 L113.35,104.32 L113.77,104.35 Z M113.55,104.52 L113.55,104.76 L113.77,104.76 C113.809149,104.771672 113.850851,104.771672 113.89,104.76 C113.904263,104.731695 113.904263,104.698305 113.89,104.67 C113.904263,104.641695 113.904263,104.608305 113.89,104.58 C113.850851,104.568328 113.809149,104.568328 113.77,104.58 L113.55,104.52 Z" id="Shape" fill="#A3A1A7" fill-rule="nonzero"></path>
            <g id="_Group_" transform="translate(15.000000, 15.000000)" fill-rule="nonzero">
                <rect id="Rectangle" fill="#7673C0" x="42.64" y="7.83" width="31.5" height="56.61"></rect>
                <path d="M44.64,36.14 C44.6282226,25.0914923 49.6988438,14.6515443 58.39,7.83 C43.6297903,-3.76994822 22.4335373,-2.08031545 9.69739789,11.7114698 C-3.03874153,25.5032551 -3.03874153,46.7667449 9.69739789,60.5585302 C22.4335373,74.3503154 43.6297903,76.0399482 58.39,64.44 C49.7016087,57.6206213 44.6312973,47.1849985 44.64,36.14 L44.64,36.14 Z" id="_Path_" fill="#EB001B"></path>
                <path d="M113.2,58.44 L113.2,57.32 L113.67,57.32 L113.67,57.08 L112.48,57.08 L112.48,57.32 L112.95,57.32 L112.95,58.48 L113.2,58.44 Z M115.51,58.44 L115.51,57.04 L115.15,57.04 L114.73,58.04 L114.31,57.04 L113.94,57.04 L113.94,58.44 L114.2,58.44 L114.2,57.39 L114.59,58.3 L114.86,58.3 L115.25,57.39 L115.25,58.45 L115.51,58.44 Z" id="Shape" fill="#00A1DF"></path>
                <path d="M116.63,36.14 C116.626671,49.919668 108.757862,62.4885159 96.3639416,68.5109738 C83.9700212,74.5334317 69.2256796,72.9527733 58.39,64.44 C67.0746003,57.6148318 72.1452933,47.1805965 72.1452933,36.135 C72.1452933,25.0894035 67.0746003,14.6551682 58.39,7.83 C69.2255898,-0.688894825 83.9740897,-2.27313742 96.3717553,3.75010612 C108.769421,9.77334966 116.639679,22.3466196 116.64,36.13 L116.63,36.14 Z" id="Path" fill="#00A1DF"></path>
            </g>
        </g>
    </g>
</svg>
