<svg xmlns="http://www.w3.org/2000/svg" height="127.046" width="200"><path d="M200 127.046H0V0h200v127.046z" fill="#fff"/><path d="M3.33 106.401h193.333v17.335H3.33v-17.335z" fill="#f7b600"/><path d="M3.33 20.666h193.333V3.332H3.33v17.334z" fill="#1a1f71"/><g clip-path="url(#clipPath4157)" transform="matrix(.92593 0 0 -.92593 -183.892 429.475)"><path d="M302.448 424.608l-10.464-48.917h-12.656l10.464 48.917h12.656zm53.24-31.586l6.664 18.37 3.828-18.37h-10.492zm14.127-17.33h11.7l-10.222 48.916h-10.796c-2.435 0-4.481-1.413-5.39-3.586l-18.99-45.33h13.29l2.637 7.306h16.237l1.534-7.307zm-33.037 15.97c.053 12.908-17.848 13.624-17.731 19.392.043 1.753 1.713 3.62 5.369 4.097 1.81.234 6.814.421 12.48-2.19l2.218 10.38c-3.045 1.1-6.963 2.16-11.837 2.16-12.511 0-21.312-6.645-21.382-16.168-.082-7.044 6.286-10.97 11.075-13.316 4.933-2.396 6.587-3.936 6.564-6.077-.035-3.282-3.94-4.735-7.57-4.789-6.364-.1-10.054 1.72-12.997 3.091l-2.297-10.723c2.96-1.357 8.418-2.536 14.07-2.596 13.3 0 21.999 6.57 22.038 16.74m-52.415 32.945l-20.504-48.917H250.48l-10.091 39.04c-.611 2.4-1.143 3.282-3.005 4.296-3.043 1.653-8.068 3.2-12.485 4.161l.298 1.42h21.537c2.74 0 5.209-1.825 5.836-4.985l5.332-28.309 13.163 33.294h13.297z" fill="#1a1f71"/></g></svg>