<svg viewBox="0 0 25 21" fill="none" xmlns="http://www.w3.org/2000/svg">
<path d="M12.7852 19.996C12.6743 20.0607 12.5793 20.1153 12.5017 20.1594C12.424 20.1146 12.3286 20.059 12.2172 19.9933C11.88 19.7941 11.3971 19.5014 10.8171 19.1289C9.65604 18.3833 8.11062 17.3208 6.56767 16.0515C5.02226 14.7802 3.49424 13.3133 2.35637 11.7613C1.21439 10.2036 0.5 8.60743 0.5 7.06683C0.5 3.58745 3.32059 0.766807 6.80002 0.766822L6.80392 0.766792C8.93212 0.750195 10.9218 1.82062 12.0807 3.60571L12.4976 4.24792L12.9179 3.60795C14.0856 1.83032 16.0713 0.761866 18.1982 0.766804C21.6712 0.784044 24.4825 3.59508 24.5 7.06808C24.4996 8.63471 23.784 10.2434 22.6432 11.804C21.5057 13.3601 19.9783 14.8234 18.4333 16.0883C16.8908 17.3511 15.3457 18.404 14.185 19.1417C13.6051 19.5103 13.1223 19.7994 12.7852 19.996Z" stroke="#8875FB"/>
</svg>
